# xmcd
#
# Track frame offsets:
#	150
#	22554
#	44863
#	67507
#	89987
#	109463
#	123020
#	143441
#	163484
#	183302
#	206377
#	225320
#	247876
#	266373
#	287323
#
# Disc length: 4087 seconds
#
# Revision: 1
# Processed by: cddbd v1.5.1PL0 Copyright (c) Steve Scherf et al.
# Submitted via: audiograbber 1.83.01
#
DISCID=c10ff50f
DTITLE=unknown person - China - New Age
DYEAR=2004
DGENRE=Ethnic
TTITLE0=Moon Boat
TTITLE1=Love Story
TTITLE2=If Cloud Know
TTITLE3=Disaster From Moon
TTITLE4=Would You Come Here Tonight
TTITLE5=Go After Moon
TTITLE6=Appointment Forever
TTITLE7=Daytime Don't Know Dark Night
TTITLE8=Like Wakening From A Dream
TTITLE9=I Can't Foget You
TTITLE10=Confused Love
TTITLE11=Look At The Moon's Face
TTITLE12=Miss You Under Moonlight
TTITLE13=Too Lonely To Sleep
TTITLE14=Let Me Love You Sufficient
EXTD=YEAR: 2004
EXTT0=
EXTT1=
EXTT2=
EXTT3=
EXTT4=
EXTT5=
EXTT6=
EXTT7=
EXTT8=
EXTT9=
EXTT10=
EXTT11=
EXTT12=
EXTT13=
EXTT14=
PLAYORDER=
